name C:\Users\u0101727\Documents\MyRepositories\upper-imu-dc\Results\main_tracking\Case_48\ABD01_orientations_groundFrame.mot
datacolumns 13
datarows 14
range 6.31000000 6.44000000
endheader 
time	radius_imu_[0][0]	radius_imu_[0][1]	radius_imu_[0][2]	radius_imu_[1][0]	radius_imu_[1][1]	radius_imu_[1][2]	radius_imu_[2][0]	radius_imu_[2][1]	radius_imu_[2][2]	radius_imu_x	radius_imu_y	radius_imu_z	
          6.31000000	          0.99955119	         -0.02701944	         -0.01293745	         -0.01760534	         -0.87923587	          0.47606128	         -0.02423798	         -0.47561985	         -0.87931694	         -2.64537690	         -0.01293781	          0.02702499	
          6.32000000	          0.99940150	         -0.03045571	         -0.01640376	         -0.01913639	         -0.88178555	          0.47126218	         -0.02881722	         -0.47066622	         -0.88184062	         -2.65079946	         -0.01640449	          0.03046453	
          6.33000000	          0.99922850	         -0.03390536	         -0.01982012	         -0.02075331	         -0.88430046	          0.46645686	         -0.03334233	         -0.46568565	         -0.88432187	         -2.65620813	         -0.01982142	          0.03391853	
          6.34000000	          0.99903295	         -0.03735877	         -0.02318362	         -0.02244804	         -0.88677945	          0.46164737	         -0.03780534	         -0.46068051	         -0.88676052	         -2.66160132	         -0.02318570	          0.03737751	
          6.35000000	          0.99881583	         -0.04080549	         -0.02649246	         -0.02421105	         -0.88922116	          0.45683647	         -0.04219909	         -0.45565408	         -0.88915611	         -2.66697672	         -0.02649556	          0.04083116	
          6.36000000	          0.99857823	         -0.04423440	         -0.02974610	         -0.02603141	         -0.89162404	          0.45202758	         -0.04651751	         -0.45061057	         -0.89150784	         -2.67233120	         -0.02975049	          0.04426844	
          6.37000000	          0.99832140	         -0.04763383	         -0.03294547	         -0.02789679	         -0.89398641	          0.44722485	         -0.05075584	         -0.44555506	         -0.89381460	         -2.67766086	         -0.03295144	          0.04767776	
          6.38000000	          0.99804666	         -0.05099173	         -0.03609317	         -0.02979361	         -0.89630650	          0.44243304	         -0.05491097	         -0.44049347	         -0.89607493	         -2.68296108	         -0.03610101	          0.05104715	
          6.39000000	          0.99775539	         -0.05429591	         -0.03919351	         -0.03170720	         -0.89858253	          0.43765750	         -0.05898161	         -0.43543241	         -0.89828714	         -2.68822658	         -0.03920355	          0.05436444	
          6.40000000	          0.99744902	         -0.05753422	         -0.04225244	         -0.03362209	         -0.90081283	          0.43290392	         -0.06296833	         -0.43037898	         -0.90044929	         -2.69345164	         -0.04226502	          0.05761752	
          6.41000000	          0.99712894	         -0.06069481	         -0.04527716	         -0.03552246	         -0.90299590	          0.42817818	         -0.06687328	         -0.42534050	         -0.90255937	         -2.69863034	         -0.04529264	          0.06079456	
          6.42000000	          0.99679653	         -0.06376636	         -0.04827547	         -0.03739268	         -0.90513060	          0.42348598	         -0.07069976	         -0.42032421	         -0.90461544	         -2.70375695	         -0.04829424	          0.06388424	
          6.43000000	          0.99645317	         -0.06673828	         -0.05125502	         -0.03921787	         -0.90721619	          0.41883260	         -0.07445155	         -0.41533696	         -0.90661578	         -2.70882617	         -0.05127749	          0.06687595	
          6.44000000	          0.99610021	         -0.06960086	         -0.05422255	         -0.04098436	         -0.90925234	          0.41422272	         -0.07813224	         -0.41038506	         -0.90855900	         -2.71383340	         -0.05424916	          0.06975997	
